<svg xmlns="http://www.w3.org/2000/svg" viewBox="0 0 36 36"><defs><style>.cls-1{fill:#fff;}</style></defs><title>Ресурс 1</title><g id="Слой_2" data-name="Слой 2"><g id="Слой_1-2" data-name="Слой 1"><path class="cls-1" d="M30.17,21.26,36,18l-5.83-3.26L33.59,9l-6.68.09L27,2.41,21.26,5.83,18,0,14.74,5.83,9,2.41l.09,6.68L2.41,9l3.42,5.74L0,18l5.83,3.26L2.41,27l6.68-.09L9,33.59l5.74-3.42L18,36l3.26-5.83L27,33.59l-.09-6.68,6.68.09ZM25.82,31.54l-5-3L18,33.64l-2.83-5.06-5,3,.08-5.8-5.8.08,3-5L2.36,18l5.07-2.83-3-5,5.8.08-.08-5.8,5,3L18,2.36l2.83,5.06,5-3-.08,5.8,5.8-.08-3,5L33.64,18l-5.06,2.83,3,5-5.8-.08ZM27,16.29a2.49,2.49,0,0,1-.9-.53,2.53,2.53,0,0,1-.6-.85,2.6,2.6,0,0,1-.18-1,2.36,2.36,0,0,1,.26-1A2.45,2.45,0,0,0,26,11.78a2.34,2.34,0,0,0-.2-1.13c-.43-.68-1.38-.77-2.6-.19a2.56,2.56,0,0,1-1.12.26,2.45,2.45,0,0,1-1.45-.48A2.4,2.4,0,0,1,19.71,9C19.2,7.57,18.5,7.27,18,7.27s-1.2.3-1.71,1.73a2.45,2.45,0,0,1-.87,1.23,2.5,2.5,0,0,1-1.42.48,2.56,2.56,0,0,1-1.12-.26c-1.22-.58-2.17-.48-2.6.19a2.34,2.34,0,0,0-.2,1.13,2.45,2.45,0,0,0,.38,1.09,2.42,2.42,0,0,1-.55,2.91,2.3,2.3,0,0,1-.91.52C7.57,16.8,7.27,17.5,7.27,18s.3,1.2,1.73,1.71a2.49,2.49,0,0,1,.9.53,2.53,2.53,0,0,1,.6.85,2.6,2.6,0,0,1,.18,1,2.36,2.36,0,0,1-.26,1A2.45,2.45,0,0,0,10,24.22a2.34,2.34,0,0,0,.2,1.13c.43.68,1.38.77,2.6.19A2.58,2.58,0,0,1,14,25.29a2.5,2.5,0,0,1,1.42.48A2.45,2.45,0,0,1,16.29,27c.51,1.43,1.21,1.73,1.71,1.73s1.2-.3,1.71-1.73a2.45,2.45,0,0,1,.87-1.23A2.5,2.5,0,0,1,22,25.29a2.56,2.56,0,0,1,1.12.26c1.22.58,2.17.48,2.6-.19a2.34,2.34,0,0,0,.2-1.13,2.45,2.45,0,0,0-.38-1.09,2.45,2.45,0,0,1-.07-2.05,2.5,2.5,0,0,1,.61-.86,2.41,2.41,0,0,1,.92-.52c1.43-.51,1.73-1.21,1.73-1.71S28.39,16.8,27,16.29Zm-.4,2.29a3.63,3.63,0,0,0-1.32.79,3.59,3.59,0,0,0-.88,1.26,3.76,3.76,0,0,0-.27,1.52,3.65,3.65,0,0,0,.38,1.49c.34.71.28,1,.25,1.07h-.15a2.13,2.13,0,0,1-.92-.27A3.67,3.67,0,0,0,22,24.09a3.63,3.63,0,0,0-3.42,2.47c-.26.73-.53.92-.58.93s-.32-.2-.58-.93A3.63,3.63,0,0,0,14,24.09a3.71,3.71,0,0,0-1.63.38,2.13,2.13,0,0,1-.92.27.38.38,0,0,1-.15,0,1.78,1.78,0,0,1,.25-1.07,3.65,3.65,0,0,0,.38-1.49,3.76,3.76,0,0,0-.27-1.52,3.59,3.59,0,0,0-.88-1.26,3.63,3.63,0,0,0-1.32-.79c-.74-.26-.93-.53-.93-.58s.19-.32.93-.58a3.63,3.63,0,0,0,1.32-.79,3.59,3.59,0,0,0,.88-1.26,3.76,3.76,0,0,0,.27-1.52,3.65,3.65,0,0,0-.38-1.49c-.34-.71-.28-1-.25-1.07h.15a2.28,2.28,0,0,1,.92.27A3.71,3.71,0,0,0,14,12,3.63,3.63,0,0,0,17.42,9.5c.26-.74.53-.93.58-.93s.32.19.58.93a3.56,3.56,0,0,0,1.33,1.75,3.63,3.63,0,0,0,2.09.66,3.85,3.85,0,0,0,1.63-.37,2.13,2.13,0,0,1,.92-.27h.15a1.78,1.78,0,0,1-.25,1.07,3.65,3.65,0,0,0-.38,1.49,3.76,3.76,0,0,0,.27,1.52,3.59,3.59,0,0,0,.88,1.26,3.63,3.63,0,0,0,1.32.79c.74.26.93.53.93.58s-.17.34-.91.6ZM18,12.41a5.56,5.56,0,0,0-5.16,3.45,5.5,5.5,0,0,0-.32,3.23,5.59,5.59,0,0,0,4.39,4.39,5.5,5.5,0,0,0,3.23-.32A5.56,5.56,0,0,0,23.59,18,5.6,5.6,0,0,0,18,12.41Zm0,10a4.43,4.43,0,0,1-2.47-.75,4.46,4.46,0,0,1-1.88-4.57,4.44,4.44,0,0,1,1.22-2.27,4.49,4.49,0,0,1,2.28-1.21A4.46,4.46,0,1,1,18,22.44Z"/></g></g></svg>