<?xml version="1.0" encoding="utf-8"?>
<!-- Generator: Adobe Illustrator 22.1.0, SVG Export Plug-In . SVG Version: 6.00 Build 0)  -->
<svg version="1.1" id="Layer_2" xmlns="http://www.w3.org/2000/svg" xmlns:xlink="http://www.w3.org/1999/xlink" x="0px" y="0px"
	 viewBox="0 0 1200 800" style="enable-background:new 0 0 1200 800;" xml:space="preserve">
<style type="text/css">
	.st0{fill:#FFFFFF;}
	.st1{fill:#03772C;}
	.st2{fill:#26B559;}
	.st3{fill:#008935;}
	.st4{fill:#4F3328;}
	.st5{fill:#003640;}
</style>
<g>
	<path class="st0" d="M799,758c0,0-29.3-6.3-35.3-18.3s-7.3-19,2.3-22s14.7-9.7,21.3,1.3c6.7,11,8.7,14.7,10.7,22
		C800,748.3,799,758,799,758z"/>
	<path class="st1" d="M424.3,409.3c0.9,0,0.9,0,0.9-0.9c-1.7,0-3.5,0.9-5.2,2.6c-6.1,5.2-12.2,13.9-15.6,21.7
		c-4.3,9.5-6.5,13.9-7.4,24.3c0,4.3,1.7,17.8,4.8,22.6c4.3-9.5,8.7-16.9,13-20.4c3.5-2.6,6.1-4.8,9.6-5.6c0,12.2-0.9,26,6.9,36.5
		c4.3,5.2,5.2-0.9,7.8-5.2c2.6-5.2,6.9-8.7,11.3-13c6.1-6.9,13-13,20-19.1L424.3,409.3z"/>
	<path class="st2" d="M442.2,352.6c-5.5,2.9-11.3,5.2-17.4,7.1c3.5,25.1,9.9,53.2,21.2,81.3c7.7-6.9,17.4-11.1,26.6-11.3
		c15.3-0.7,26.2,1,36.9,1.1c3.8,0.1,7.3,0.4,10.5,0.6c-2-6.5-2.4-14.2-2.2-23c-20.4-22.3-38.5-46.6-52.8-73.6
		C458.7,341.2,451.4,347.4,442.2,352.6z"/>
	<path class="st2" d="M580.3,473.5c-6,3.7-8.5,2.4-11.1,2.8c-2.5,0.1-4.7,0.1-7.1,0.1c-4.7,0.1-9.3,0.3-13.9,0.7
		c-2.8,0.3-12.7,0.9-14.9,1c-10.7,1.6-9.3,0.8-15.4,12.8c-2.6,4.5-5.8,8.7-8,11.8c-2.7,4.1-5.6,7.8-8.2,11.2c-2,2.6-3.9,5.2-5.5,7.6
		c42.5,44.7,97.8,67.6,140.8,74.3c-8.9-12.8-15.7-26.3-20.4-40c-8-23.7-8.4-46.8-5.5-66c-9.2-6.8-18.3-13.8-27.3-20.9
		C583.1,470.3,582.1,471.9,580.3,473.5z"/>
	<path class="st3" d="M1063.3,250.4c-14.6,4-26,6.1-44.4,16.3c-18.5,10.6-36.2,26.2-51.6,48.8c-16.1,21.8-31.7,49-59.3,69.6
		c-26.6,20.8-69,28.7-104.5,11.4c-33.2-17.4-65.1-37.3-101.1-51.6c-37.1-14.1-75.8-28.5-113.1-50.7c-17.3-11.3-38.4-23.9-45.2-48.8
		c-2.5-12.9-0.1-22.6,0.2-32.6c0.8-9.9,1-19-0.5-28.1c-3-18.3-9.9-36.2-18.7-52c-4.3-8-8.9-13.1-15-21c-5.7-7.8-10.5-14.6-16.5-20.8
		c-12.2-13.5-24.8-28.7-36.9-34.3c-9.7-2.9-21.8-1.4-34.3,0c2.7,1.8,4.8,2.9,7.1,4.8c16.6,13.4,24.6,23.5,23.6,24.9
		c-2.1,3-22.5-15.1-55.9-28.8c-6.4-2.6-13.4-5.1-20.8-7.2c-2.3-0.7-4.6-1.3-6.9-1.8c-1.1-0.3-2.2-0.5-3.4-0.8
		c-4.9-1.1-10-2.1-15.3-2.8c-7.6-0.1-10.4-0.4-14,4.4c-0.2,0.3-0.5,0.6-0.7,0.9c-2.7,3.6-5.7,7.7-8.4,11.6c-1.1,1.5-2.1,2.9-3,4.3
		c-0.8,1.3-1.7,2.5-2.5,3.8c-4.2,6.4-8.4,12.7-12,18.2c-1.9,2.8-3.6,5.5-5.3,7.8c-4.9,9-9.8,16.6-14.5,20.9
		c-4.5,4.8-9.8,4.3-9.4,3.2c0.2-1,2.4-1.8,5-6.7c2.2-3.9,4.6-9.8,7.5-17.3c-9,4.1-18.7,8.1-29.1,11.9c-3.3,1.1-6.6,2.3-10.5,3.2
		c-1.5,0.4-5.2,0.8-6.5,0.8c-1.6,0.1-3.3,0.1-5,0.2c-6.9,0.4-14,0.9-21.3,1.4c-14.5,1.5-30.5,0.7-44.1,3
		c-29.8,2.4-42.4,29.4-52.4,53.5c-5.2,12.2-8.9,23.4-10.7,34.8c-1.6,11.3-1.1,22.7-0.5,31.5c1.6,19.3,11.4,35.2,14.4,45.9
		c0.5,1.6,2.4,5.8,4.6,9.8c0.3,5.1,7.8,4.9,19.8,4.9c12.7-1.3,22.1-0.7,38.4-2c15.3-1.3,30.8,1.2,48.2-0.8c1.3-0.1,13.9,0.1,15.2,0
		c33.8-1.9,53.2-16.5,71.4-28.6c12.4-7.1,19.4-14.6,23.3-19.3c-0.2-0.6-0.3-1-0.3-1.4c0.4,0.2,0.7,0.3,1,0.4
		c0.5,0.2,0.9,0.3,1.4,0.5c0.9,0.3,1.7,0.5,2.4,0.6c-0.1,0.7-0.3,1.5-0.6,2.3c-0.4,1.1,7.4,1.7,6.7,3c-3.2,6.5-11.2,14-20.8,21.7
		c-12.8,11-91.5,28.6-93.3,26c-2,0.1-2.2,4.2-4.2,4.3c-4.6,0.5-17.8-6-22.3-5.6c-1.1,7.6,1,19.7,0.4,26c-0.7,7.2,5.1,12.2,3.6,16.3
		c0,0.1-0.2,0.2-0.5,0.2l0.1,14.2c9.4-0.1,18.1,0.1,28.1-0.4c29-1.5,61.8-0.7,94.9-1.2c23-1.3,46.2-1.5,66.3-5.5
		c3.8-0.8,7.5-1.7,11.1-2.7c4.5-1.3,8.8-3,12.8-4.9c22.3-12.6,40-35.7,47-53.5c6.4-19.5,2.5-37.5-0.3-49c-3-11.7-5.7-18.1-4.7-18.6
		c0.7-0.4,5.1,5.1,10.1,16.8c4.6,11.4,11.1,30.2,5.2,53.8c-3.1,12-10.3,22.8-18.2,33.5c-3.1,4-6.4,7.9-10,11.8
		c14.3,27,32.4,51.3,52.8,73.6c0.1-3.3,0.2-6.8,0.5-10.4c0.7-11.1,3.6-30.6,4.6,2c0.2,6.8,2,12.6,3.9,17.9
		c13.9,14.3,28.8,27.8,44.2,40.7c0.2-1.5,0.4-3.1,0.3-4.1c1.4-17,14.8-16.9,14.2,1c-0.1,2.1-0.2,4.7-0.2,6.5
		c-0.2,1.6,0.1,4.1-1.4,7.2c9,7.2,18.1,14.1,27.3,20.9c0.5-3.1,1-6,1.6-8.9c4.2-20.5,9.9-36.8,13.8-47.4
		c3.8-11.8,9.6-16.1,10.1-15.6c1,0.7-2.9,6-4.6,16.9c-2.3,11.7-6.2,27.5-8.8,47.8c-2.7,19.7-2.3,44,6.8,68.4c6.1,16.3,16,33,29,47.9
		c2.1,2.4,4.2,4.7,6.5,7c1.2,1.3,2.5,2.5,3.8,3.8c1.5,1.4,3,2.8,4.5,4.1c1.8,1.6,3.7,3.2,5.6,4.7c9.7,7.5,20.8,13.1,31.5,15.1
		c2,0.4,4,0.6,5.9,0.8c13,0.6,25.3-4.1,36.1-11c9.2-6.3,17.8-13.2,25.5-20.3c-0.1-0.2-0.2-0.3-0.3-0.5c0.5-0.2,0.9-0.3,1.4-0.5
		c2.6-2.4,5-4.8,7.3-7.3c3.2-3.4,6.2-6.8,8.9-10.2c2.6-3.2,4.8-6.4,6.8-9.6c9.9-16.7,12.6-33.4,14.8-44.5c2-11.3,3.3-17.7,4.3-17.6
		c0.9,0.1,1.6,6.5,1.3,18.2c-0.4,10.8-1.1,27-9.3,45.4c19.7-9,41.6-19.5,63.4-32.7c27.8-19.9,61.5-41.6,80-75.4
		c9-17.2,18-36,25.9-52.8c7.8-16.8,12.5-34.5,18.9-51.4c11.3-33.7,29-63.9,49.5-81.9c19.4-19.4,28.4-24.1,40.7-31.7
		c6.8-4.2,13-8.7,12.9-9.3C1104.6,241.4,1088.2,244,1063.3,250.4z M183.2,172.4c-1.6,3.8-5.8,8.5-5.8,8.5c-4.3,4-9.1,7.5-15.1,13.4
		c-4.1,5.5-7.8,10.4-8.7,12.6c-0.7,1.7-2.9-6.9-3.5-17.3c-0.1-5.2,0-11.8,3.1-19.1c1.6-3.6,3.7-7.3,6.8-10.5
		c1.5-1.7,2.5-2.8,4.9-4.5c2.1-1.3,4.5-3.5,10.3-3.3c2.9,0.2,6.1,2,7.6,4.1c0.2,0.3,2.9,3.6,2.9,5.6
		C186.6,167.9,184.2,170.5,183.2,172.4z M442,284.3l2.6,1.7L442,284.3z"/>
	<path class="st3" d="M526.7,417.7c2,5.4,4.1,10.2,5,14.9c7.3,1.1,11.3,2.5,11.2,3.7c-0.2,0.9-4,1.7-11,2.6c-2.5,0.3-5.5,0.7-8.8,1
		c-3.9,0.4-9,0.3-14,0.3c-11.7,0-23.3-0.1-35.2,1.3c-8.3,1.1-15.8,7.7-21.3,14.8c-2,2.7-3.7,5.7-5,9.2c-1.2,3.1-2.2,6.4-2.9,9.6
		c-2.3,10.2-2.3,20.5,0.6,27.6c0.4,1,0.8,1.8,1.3,2.6c2.9-3.9,5.6-8,8.3-11.7c0.1-0.1,0.1-0.2,0.1-0.2c3.3-5.2,7-9.3,10.6-12.4
		c2-1.8,4-3.2,5.9-4.3c3.3-6.9,6.9-9.9,7.5-9.1c0.7,0.5-0.1,2.5-1.1,6.1c-0.4,1.4-0.9,3.1-1.3,5.1c-0.1,0.6-0.2,1.2-0.3,1.8
		c-0.7,4.2-0.9,10-0.6,16.2c0.2,3.5,0.6,7.2,1.3,10.8c0.8,2.4,2.2,5.1,4,7.7c0.7,1.1,1.3,1.9,1.8,2.5c0.1-0.1,0.1-0.3,0.2-0.4
		c1.1-2.2,2.4-4.3,3.6-6.3c1.2-1.8,2.4-3.6,3.6-5.3c2.5-3.6,5-7.2,7.2-10.7c2.9-4.4,5.2-7.8,7.3-11.5c2.3-3.1,2.4-8.3,8.9-14.4
		c6.2-4.9,12.1-5.7,17.4-6.3c0.4,0,0.7-0.1,1.1-0.1c2.8-0.2,5.5-0.3,8.1-0.3c0,0.2,4.7-0.5,6.7-0.7c5.2-0.4,10.2-0.5,15.1-0.5
		c2.3,0,4.9,0.1,7,0.1c0.5,0.1,1,0.1,1.5,0c0.1-0.8,0.2-1.8,0.4-2.9C555.5,445.5,540.6,432,526.7,417.7z"/>
	<path class="st3" d="M800.5,630.6c3.2-3.2-6,6.7-11.8,13.6c-7,9-10.8,18.9-13.6,29.4c-1.7,11.9-3,23.4-3.9,34.4
		c-1.5,0.2-2.9,0.7-4.2,1.3c-6.1,2.5-10.3,7.7-11.8,13.3c-1.2,5.2,1.9,15.1,3.3,18.8c-0.3,0.2-2.7,0.3-3,0.4c-0.8,0.5-4-0.5-4.8,0
		c0.6-9.9-2.6-20.4-10.8-27.3c-7.5-4.8-15.1-5.9-23-3c-7.8,3-12,6.4-15.6,11.7c-3.2,4.9-7,13.1-8.7,17.8c0.7-3.7-0.6-15.1,0.9-19.1
		c3.9-10.4,7.1-15.1,10.4-18.7c-9.8,4.8-15.4,16.2-16.9,20c-0.6,1.5-0.6,1.8,0,0.1c-3.4,10.3-2,18.6-0.8,24.5
		c-2.7-0.2-5.4-0.4-8.2-0.5c-0.1,0-0.3,0-0.4,0c1.1-1.4,2.1-3,2.7-4.9c1.5-4.1,1.5-6.7,1.7-10.3c0.1-3.6-0.7-7.2-2-10.7
		c-1.5-3.9-4-7.4-7.2-10.2c7.5-4.1,15.8-9.7,24.1-17.4c11.6-11.3,18.8-24.6,19.6-37c-0.1-3-0.7-5.4-1.5-7.2c0.5,0,1,0.1,1.5,0.1
		c17,0.6,32.5-6.1,44.4-14.3c9.6-7.1,18.1-14.4,25.6-21.9C790.9,619.5,795.7,625.4,800.5,630.6z"/>
	<path class="st0" d="M733.4,720.4c8.3,5.6,11.1,19,5.6,25.7c-5.2,8.1-15.2,12.5-22.8,17c-3.7,2.1-21.6,11-22.5,11.2
		c-0.7-1-1.8-11.1,1.5-19.6c0-0.1,0-0.1,0.1-0.2c3.3-8.1,6.5-18,12.9-26.5C714.4,719.1,724.4,714.8,733.4,720.4z"/>
	<path class="st4" d="M686.8,723.2c0,0,0,0.1,0,0.1C686.2,724.9,686.2,724.6,686.8,723.2z"/>
	<path class="st0" d="M668.9,725.7c0.7,2,1.2,4.2,1.2,6.3c-0.1,2.1-0.3,5.3-0.8,6.3c-0.8,3-3.8,4.9-8,6.1
		c-8.3,2.1-18.5,1.6-26.1,3.2c-12.6,1.3-22.1,2.8-24.2,4.3l-1.5-1.8c1.7,0,7-7.4,18.6-15.9c5.9-4.5,13.5-9.4,21.8-14.8
		c2.1-1,4.5-2.9,9.2-2.2C663.2,717.9,666.9,720.8,668.9,725.7z"/>
	<path class="st1" d="M646.2,607.8c2.7,3.3,5.7,6.5,8.8,9.6c-5.2,5.1-14.1,10.9-20.5,17.9c-15,14.6-31.1,35.1-37.4,60.2
		c-2.7,11.4-5.5,23.8-7.1,33.1c-2.8,3.3-6.6,4.8-8.5,5.2c-5.1,1.1-8.9,1.9-15.5,2.8c-14.1,3.1-28,4-40.5,4.8
		c1.6-4.8,1.6-11.2,0.2-17.9c-0.9-4.6-3.1-10.7-8.6-15.1c-0.5-0.4-1.1-0.9-1.7-1.2c1.3-1,2.6-2.1,3.9-3.2
		c12.5-9.2,24.3-21.7,34.6-35.6c4.9-6.8,10.5-13.8,13.9-22.6c3.8-8.4,3.4-20.3-1.5-27.7c-2.3-3.7-4.7-6.9-7.3-9.7
		c-1.9-2-4.3-5.2-6.4-7.6c-4.2-5.1-5.6-6.8-8.8-11.1c-3.5-4.1-7-15.9-8.2-17.8c9.8,6.2,13,8.2,22.8,12.8
		c15.5,7.2,30.9,12.7,45.5,16.6c15.4,4,29,4.8,41.7,6.3C646,607.8,646.1,607.8,646.2,607.8L646.2,607.8z"/>
	<path class="st0" d="M518.1,725.8c2.2,6.3,1.2,12.6,0.3,16.4c-3,0.2-4.3,0.2-7.1,0.5c-3.8,0.3-18,0-22.2-0.4
		c-9.3-0.7-19.6-1.4-32-1.2c-1,0-1.9,0-2.9,0c0.7-0.9,1.4-1.7,2.2-2.6c3.7-4,8.2-8,10.8-9.7c11.1-7.8,22.4-11.4,32-13.7
		c2.6-0.7,4.9-0.9,7-0.6C512.3,715.2,516.2,719.6,518.1,725.8z"/>
	<path class="st2" d="M486,257.7c-0.6-7.9-2.2-14.9-3.5-20.4c-3-11.7-3.3-12.5-2.3-13c0.3-0.2-9.1-13.7-14.8-16.1
		c-36.5-15.6-101.6-24.7-99,41.7c-2.6-2.6-5.1-1.6-7.5,0.6c0.5,0.2,0.7,0.5,0.6,0.7c-3.2,6.5-11.2,14-20.8,21.7
		c-12.8,11-96.5,27.2-98.5,27.3c-7,0.8-8.3,0.4-12.9,0.8c-16.1,0-27.5,5.5-39.1,5.5c-14.8,0.4-25.6,0.4-37.2,1
		c-6.1-0.3-4.7-0.1-4.3,0.4c1.3,4.9,3.8,9.7,6.2,14.6c2.7,5.6,4.2,8.7,9.1,15c2.5,3.2,3.5,5.4,7.5,8.1c4.1,2.7,6.6,4.1,10.7,5.5
		c8.9,3.3,15,3.3,28.9,3.1c2.8,0,7,0.2,9.9,0.1c1.2,0,2.4,0,3.6,0c9.4-0.1,18.1,0.1,28.1-0.4c29-1.5,61.8-0.7,94.9-1.2
		c23-1.3,46.2-1.5,66.3-5.5c3.8-0.8,7.5-1.7,11.1-2.7c4.5-1.3,8.8-3,12.8-4.9c22.3-12.6,40-35.7,47-53.5
		C486.2,276.2,486.7,266.4,486,257.7z"/>
	<path class="st0" d="M202.5,299.5c0,0,0-1.3-1.3-1.3c1.3,7.8,13,28.6,23.4,27.3c0-7.8,1.3-18.2,5.2-24.7L202.5,299.5z"/>
	<path class="st0" d="M258.3,300.7c0,0,1.3,8.3,7.3,15.3s10.7,13.7,14,13.3s5.7-5.3,6-11c0.3-5.7,0-27.7,0-27.7l-28,4.3L258.3,300.7
		z"/>
	<path class="st0" d="M495.5,708c-0.9-4.3-6.1-5.2-9.5-5.2c-13.9-2.6-26,3.5-36.5,12.2c-6.9,6.1-13,12.2-19.1,18.2
		c-1.7,1.7-9.5,6.9-7.8,10.4c0,0,7.8,0.9,10.4,0.9c3.5,0,7.8,0.9,11.3,0.9c0,0.9,0,0.9-0.9,0.9L495.5,708z"/>
	<path class="st0" d="M311.4,151.5c-1.7,12.2,1.7,26.9,12.2,34.7c13,9.5,31.3,5.2,44.3-1.7c10.4-6.1,34.7-22.6,31.3-38.2
		c-3.5-13.9-29.5-15.6-40.8-13c-16.5,2.6-30.4,11.3-46,13.9L311.4,151.5z"/>
	<path class="st5" d="M479.8,530.7c0.3,0,0.9,0,1.9-0.1l-0.2,0.1l-0.3,0.2c-0.9,0.4-1.3,0.6-1.5,0.7c0.1-0.1,0.2-0.4-0.4-0.5
		c-1.9-1.4-7.2-6.8-8.3-9.9c-1.7-3.2-3.2-6.5-4-10.1c-1.8-2.4-3.5-4.9-5.2-7.4c-1.7,3.3-3.2,5.6-5.6,9.4c-2.2,3.1-5.6,7.6-9.5,10.2
		c-3.9-2.4-10.8-9.1-13.2-14.3c-7.2-15.8-6-32.8-0.2-49.2c0.6-1.8,1.3-3.5,2.2-5.1c-5.3-12.7-9.5-25.4-12.6-37.8
		c-3.8-17.2-6.5-31.8-9.2-47c-0.2-2.5-0.4-4.9-0.6-7.3c-5.7,1.1-11.5,2-17.2,2.6c-15.7,1.6-29.7,1.2-46.7,1.4
		c-34.3,0.5-60.4-0.7-89.9,0c-15.1,0.2-37,0.1-49.5,0.5c-12.9,0.1-26.2,0.3-37.9-4.9c-6.1-2.8-10.1-6.5-14.1-9.5
		c-4-3.2-7.9-7.1-10.5-11.2c-5.1-8.1-7.6-14.8-10.8-20.1c-2.9-5.3-5.3-9.9-6.1-13.3c-0.5-1.2-1-2.3-1.3-3.2
		c-1.6-0.5-3.4-1.3-5.1-2.7c-2.5-2.5-2.7-5.1-2.9-6.9c-0.1-0.2-0.1-0.4-0.1-0.6c-1.7-2.5-3.7-6.1-5.9-10.8
		c-4.8-10.5-11.3-25.8-14.6-46.8c-1.5-11.4,0.1-22.2,1.1-34.4c1.3-12.3,5.1-25.6,10-38.2c4.7-12.5,10.5-26.5,20.1-39.2
		c4.8-6.1,10.9-12.5,18.9-16.7c7.7-4.2,15.8-6.3,24-7.8c17-2.7,31.3-1.5,45.9-2.9c7.3-0.4,14.4-0.8,21.6-1c3.9-0.2,7.2,0.1,9.2-0.4
		c2.8-0.5,6-1.5,9-2.4c14.9-4.9,28.9-10.4,41.7-15.7c2.6-5,5.4-10.2,8.5-15.8c0.8-1.4,1.6-2.9,2.5-4.3c1.4-2.3,2.8-4.5,4.2-6.7
		c2.4-3.8,4.9-7.7,8-12c2.2-3.2,7.4-8.2,12.6-9.3c5.5-1.7,10.1-1.5,14.6-1.2c19.1,3.2,36,8.7,50.2,15.3c2.1-0.2,4.3-0.4,6.5-0.5
		c16-0.2,31.5-6.6,52.5-1.5c19.6,9,29.4,24.4,41.9,37c6.7,6.8,12.4,15,17.8,22.1c5.3,6.8,12.1,14.9,16.9,23.7
		c9.9,17.4,17.3,36.2,20.9,57c4.1,20.8-2.2,43.9,0.3,59.6c3.9,16.1,21.2,28.4,38.3,39.1c35,20.8,73.5,35.4,110.2,49.6
		c37.6,15.2,70.7,36.2,101.7,52.9c30.8,15.3,66.4,9.4,91.1-8.8c25.1-17.9,41.3-43.8,58.1-65.7c16.1-22.5,35.5-40.8,55.6-51.2
		c20.3-10.1,38.9-14.4,54.1-17.7c23.6-4.6,39-6.8,44.8-7.2c0.1-0.2,6.4-1,7-0.6c0.5,0.7-0.7,3.2-1.5,4.9c-2.3,5.9-5.2,9.4-11.4,13.8
		c-12.7,8.6-30.5,19.5-48.1,39.2c-18.8,18.7-33.6,45.3-44.1,78.8c-5.7,16.3-10.3,34.6-18.4,52.9c-8.3,18.1-16.3,35.3-26.2,54.2
		c-46.2,71-118.2,97.5-166.8,116.9c-2.7,3.8-5.6,7.5-8.7,11.1c5.1,5.6,10.7,11.6,17.4,18.7c1.7,2.2,4,7.5,2,12.7
		c-0.5,1.7-2.5,4.2-2.8,4.6v0c0,0,0,0,0,0c0,0,0,0,0,0l-2.2,2.9c-3,3.8-6.2,7.3-8.8,10.7c-4.5,6.1-8.1,14.8-10.4,23.7
		c-2,11.1-3.4,22.3-4.5,33.2c0.3,0.2,0.6,0.4,0.9,0.6c5.9,3.8,9.5,9.5,12.1,15.1c4.8,10.8,5.8,28.5,6.3,38.5c0,0.5-2.2,2.6-10.5-0.9
		c-1.8-1-10.2-5.2-12.1-6.5c-1.7-1.2-9.5-5.4-10.5-6c-0.9,0.7-6.7,1.1-7.8,1.3c-8.7,1.7-14.7,3.2-19.4,3.2
		c-8.2,8.5-18,11.2-24.9,14.5c-4.3,1.8-6.9,3.1-11,5.1c-2.5,0.9-5.5,2.8-7.9,3.7c-2.9,1.6-5.4,1.4-7,0.9c0,0,0,0,0,0
		c0,0.5-4.1,0.3-6.7-5.2c-2.1-4.4-2-10.5-0.7-17.3c-7.5,0.4-14.6-0.6-22.2-2.6c-0.1,0-0.3-0.1-0.4-0.1c-0.1,0-0.1,0-0.2,0
		c-11.8,2-20.2,0.2-27.9,0.8c-16.1-0.7-24.8-1.8-25.3-3c-0.1-0.2,0-0.4,0.2-0.6c0.1-0.1,0.1-0.1,0.2-0.1c2.1-1.5,11.6-3,24.2-4.3
		c7.6-1.6,17.8-1.1,26.1-3.2c4.3-1.2,7.2-3,8-6.1c0.5-1.1,0.7-4.3,0.8-6.3c0-2.2-0.5-4.3-1.2-6.3c-2-4.9-5.7-7.8-9.8-8.5
		c-4.7-0.7-7.1,1.3-9.2,2.2c-8.3,5.4-15.9,10.3-21.8,14.8c-11.6,8.5-17,15.9-18.6,15.9c-0.1,0-0.1,0-0.2,0
		c-0.9-0.3,0.7-6.2,6.5-13.9c1.9-2.5,4.2-5.2,7-7.9c5.7-5.7,12.9-11.5,21.3-17.8c3.8-2.7,9-4.8,14.6-4.6c7.4-6.1,17.3-14,27-23.1
		c9.9-9.3,17.1-20.1,19.9-26.9c0.8-2,0.7-4.7,0.7-7.2c-13.5-2.7-25.7-9.2-36.6-17.5c-2.4-2-4.8-4-7-6
		c-19.8,19.2-44.8,41.8-52.4,73.8c-2.9,11.9-5.1,22.3-8,35.3c-0.5,0.7-0.8,1.3-1.2,1.8c-2.3,3.4-1.4,1.3-2.3,2.9
		c-0.3,0.4-0.8,1.1-1.3,1.8c-0.2,0.3-0.5,0.7-0.9,1.2l-0.6,0.7l-0.3,0.3l-0.1,0.2c0.2-0.1,0.4-0.2,0.5-0.3c-0.6,0.4-3.2,1.9-3.6,2.1
		l-0.1,0c-2.8,0.7-5.7,1.3-8.5,1.8c-5.6,1.1-11.1,1.8-16.3,2.4c-21.5,3.8-40.3,2.5-56.2,3c-15.7,0.1-28.6-0.4-37.5-1.2c0,0,0,0,0,0
		c-5.3,0.2-29.4-0.1-30.4-0.6L443,750l-0.2-0.1l-0.1,0c0.1,0.3-3.8-1.3-3.8-1.1c-0.8-2.1,1.4-5.4,1.1-6.2l0-0.1l0.8-1.5
		c0.9-1.6,3-4.6,4.2-6.1c5.2-6.5,9.8-10.2,16.1-14.3c10.1-5.7,19-12.3,36-15.9c1.1-0.2,2.3-0.4,3.5-0.4c3.5-3,7.2-6.3,11.1-9.9
		c10.9-8.9,21.3-20.5,31.3-33.9c10.7-13.8,18.3-25.8,12.4-36.3c-2.5-5-8-10.9-11.5-16.3c-3.8-5.4-7.4-10.5-10.3-15.5
		c-3.2-4.9-5-9.6-7.3-14.2c-1.2-3.8-2.9-7.4-3.9-10.5c-0.6-1.5-1-2.9-1.2-4.2c-13.5-9.3-26.5-20.2-38.3-32.9
		C481.6,530.6,480.3,530.7,479.8,530.7z M1092,250.7c6.8-4.2,13-8.7,12.9-9.3c-0.2,0-16.6,2.6-41.5,8.9c-14.6,4-26,6.1-44.4,16.3
		c-18.5,10.6-36.2,26.2-51.6,48.8c-16.1,21.8-31.7,49-59.3,69.6c-26.6,20.8-69,28.7-104.5,11.4c-33.2-17.4-65.1-37.3-101.1-51.6
		c-37.1-14.1-75.8-28.5-113.1-50.7c-17.3-11.3-38.4-23.9-45.2-48.8c-2.5-12.9-0.1-22.6,0.2-32.6c0.8-9.9,1-19-0.5-28.1
		c-3-18.3-9.9-36.2-18.7-52c-4.3-8-8.9-13.1-15-21c-5.7-7.8-10.5-14.6-16.5-20.8c-12.2-13.5-24.8-28.7-36.9-34.3
		c-9.7-2.9-21.8-1.4-34.3,0c2.7,1.8,4.8,2.9,7.1,4.8c16.6,13.4,24.6,23.5,23.6,24.9c-2.1,3-22.5-15.1-55.9-28.8
		c-6.4-2.6-13.4-5.1-20.8-7.2c-2.3-0.7-4.6-1.3-6.9-1.8c-1.1-0.3-2.2-0.5-3.4-0.8c-4.9-1.1-10-2.1-15.3-2.8
		c-7.6-0.1-10.4-0.4-14,4.4c-0.2,0.3-0.5,0.6-0.7,0.9c-2.7,3.6-5.7,7.7-8.4,11.6c-1.1,1.5-2.1,2.9-3,4.3c-0.8,1.3-1.7,2.5-2.5,3.8
		c-4.2,6.4-8.4,12.7-12,18.2c-1.9,2.8-3.6,5.5-5.3,7.8c-4.9,9-9.8,16.6-14.5,20.9c-4.5,4.8-9.8,4.3-9.4,3.2c0.2-1,2.4-1.8,5-6.7
		c2.2-3.9,4.6-9.8,7.5-17.3c-9,4.1-18.7,8.1-29.1,11.9c-3.3,1.1-6.6,2.3-10.5,3.2c-1.5,0.4-5.2,0.8-6.5,0.8c-1.6,0.1-3.3,0.1-5,0.2
		c-6.9,0.4-14,0.9-21.3,1.4c-14.5,1.5-30.5,0.7-44.1,3c-29.8,2.4-42.4,29.4-52.4,53.5c-5.2,12.2-8.9,23.4-10.7,34.8
		c-1.6,11.3-1.1,22.7-0.5,31.5c1.6,19.3,11.4,35.2,14.4,45.9c0.5,1.6,2.4,5.8,4.6,9.8c0.3,5.1,9,2.9,21.1,2.9
		c12.7-1.3,23.4-1,39.8-2.3c14.8-1.2,29.2-1,46.6-2.9c1.3-0.1,14-1.5,15.3-1.6c33.8-1.9,52.1-10.5,70.3-22.5
		c12.4-7.1,19.4-14.6,23.3-19.3c-0.2-0.6-0.3-1-0.3-1.4c0.4,0.2,0.7,0.3,1,0.4c0.5,0.2,0.9,0.3,1.4,0.5c0.9,0.3,1.7,0.5,2.4,0.6
		c-0.1,0.7-0.3,1.5-0.6,2.3c-0.4,1.1,7.4,1.7,6.7,3c-3.2,6.5-11.2,14-20.8,21.7c-12.8,11-39.3,20.7-61.8,25.8
		c-11.6,2-24,3.6-29.7,4.3c-2,0.1-50.3,3.9-59,3.5c-14.8,0.4-25.6,0.4-37.2,1c-6.1-0.3-4.7-0.1-4.3,0.4c1.3,4.9,3.8,9.7,6.2,14.6
		c2.7,5.6,4.2,8.7,9.1,15c2.5,3.2,3.5,5.4,7.5,8.1c4.1,2.7,6.6,4.1,10.7,5.5c8.9,3.3,15,3.3,28.9,3.1c2.8,0,7,0.2,9.9,0.1
		c1.2,0,2.4,0,3.6,0c9.4-0.1,18.1,0.1,28.1-0.4c29-1.5,61.8-0.7,94.9-1.2c23-1.3,46.2-1.5,66.3-5.5c3.8-0.8,7.5-1.7,11.1-2.7
		c4.5-1.3,8.8-3,12.8-4.9c22.3-12.6,40-35.7,47-53.5c6.4-19.5,2.5-37.5-0.3-49c-3-11.7-5.7-18.1-4.7-18.6c0.7-0.4,5.1,5.1,10.1,16.8
		c4.6,11.4,11.1,30.2,5.2,53.8c-3.1,12-10.3,22.8-18.2,33.5c-8.4,10.8-18.2,21.5-32.6,29.7c-5.5,2.9-11.3,5.2-17.4,7.1
		c3.5,25.1,9.9,53.2,21.2,81.3c7.7-6.9,17.4-11.1,26.6-11.3c15.3-0.7,26.2,1,36.9,1.1c3.8,0.1,7.3,0.4,10.5,0.6
		c-2.8-8.9-3.4-20.7-3.8-34c-0.5-17.6,9.2-34.9,13.7-37.8c-3.2,11.1-5.8,23.4-3.9,46.9c1.1,13.6,3.9,16.9,5.7,26.3
		c7.3,1.1,11.3,2.5,11.2,3.7c-0.2,0.9-4,1.7-11,2.6c-2.5,0.3-5.5,0.7-8.8,1c-3.9,0.4-9,0.3-14,0.3c-11.7,0-23.3-0.1-35.2,1.3
		c-8.3,1.1-15.8,7.7-21.3,14.8c-2,2.7-3.7,5.7-5,9.2c-1.2,3.1-2.2,6.4-2.9,9.6c-2.3,10.2-2.3,20.5,0.6,27.6c0.4,1,0.8,1.8,1.3,2.6
		c2.9-3.9,5.6-8,8.3-11.7c0.1-0.1,0.1-0.2,0.1-0.2c3.3-5.2,7-9.3,10.6-12.4c2-1.8,4-3.2,5.9-4.3c3.3-6.9,6.9-9.9,7.5-9.1
		c0.7,0.5-0.1,2.5-1.1,6.1c-0.4,1.4-0.9,3.1-1.3,5.1c-0.1,0.6-0.2,1.2-0.3,1.8c-0.7,4.2-0.9,10-0.6,16.2c0.2,3.5,0.6,7.2,1.3,10.8
		c0.8,2.4,2.2,5.1,4,7.7c0.7,1.1,1.3,1.9,1.8,2.5c0.1-0.1,0.1-0.3,0.2-0.4c1.1-2.2,2.4-4.3,3.6-6.3c1.2-1.8,2.4-3.6,3.6-5.3
		c2.5-3.6,5-7.2,7.2-10.7c2.9-4.4,5.2-7.8,7.3-11.5c2.3-3.1,2.4-8.3,8.9-14.4c6.2-4.9,12.1-5.7,17.4-6.3c0.4,0,0.7-0.1,1.1-0.1
		c2.8-0.2,5.5-0.3,8.1-0.3c0,0.2,4.7-0.5,6.7-0.7c5.2-0.4,10.2-0.5,15.1-0.5c2.3,0,4.9,0.1,7,0.1c0.5,0.1,1,0.1,1.5,0
		c0.2-2,0.8-5.2,0.7-7c1.4-17,2.6-18.8,4.2-31.8c1.6-13.4,3.3-22.2,6.2-29.5c1.5-3.6,3.9-8.3,5.7-9.8c2.2-1.7,3-2.2,2.7-1.9
		c-1.6,4.9-4.1,15.5-4.1,41.8c-0.2,13.4,0,14.3-0.6,32.2c-0.1,2.1-0.2,4.7-0.2,6.5c-0.3,2.4,0.5,6.7-4.9,11.7
		c-6,3.7-8.5,2.4-11.1,2.8c-2.5,0.1-4.7,0.1-7.1,0.1c-4.7,0.1-9.3,0.3-13.9,0.7c-2.8,0.3-12.7,0.9-14.9,1
		c-10.7,1.6-9.3,0.8-15.4,12.8c-2.6,4.5-5.8,8.7-8,11.8c-2.7,4.1-5.6,7.8-8.2,11.2c-2,2.6-3.9,5.2-5.5,7.6
		c42.5,44.7,97.8,67.6,140.8,74.3c-8.9-12.8-15.7-26.3-20.4-40c-9.3-27.5-8.3-54.1-3.9-74.9c4.2-20.5,9.9-36.8,13.8-47.4
		c3.8-11.8,9.6-16.1,10.1-15.6c1,0.7-2.9,6-4.6,16.9c-2.3,11.7-6.2,27.5-8.8,47.8c-2.7,19.7-2.3,44,6.8,68.4c6.1,16.3,16,33,29,47.9
		c2.1,2.4,4.2,4.7,6.5,7c1.2,1.3,2.5,2.5,3.8,3.8c1.5,1.4,3,2.8,4.5,4.1c1.8,1.6,3.7,3.2,5.6,4.7c9.7,7.5,20.8,13.1,31.5,15.1
		c2,0.4,4,0.6,5.9,0.8c13,0.6,25.3-4.1,36.1-11c9.2-6.3,17.8-13.2,25.5-20.3c-0.1-0.2-0.2-0.3-0.3-0.5c0.5-0.2,0.9-0.3,1.4-0.5
		c2.6-2.4,5-4.8,7.3-7.3c3.2-3.4,6.2-6.8,8.9-10.2c2.6-3.2,4.8-6.4,6.8-9.6c9.9-16.7,12.6-33.4,14.8-44.5c2-11.3,3.3-17.7,4.3-17.6
		c0.9,0.1,1.6,6.5,1.3,18.2c-0.4,10.8-1.1,27-9.3,45.4c19.7-9,41.6-19.5,63.4-32.7c27.8-19.9,61.5-41.6,80-75.4
		c9-17.2,18-36,25.9-52.8c7.8-16.8,12.5-34.5,18.9-51.4c11.3-33.7,29-63.9,49.5-81.9C1070.6,263,1079.7,258.3,1092,250.7z
		 M788.6,644.2c5.8-6.9,15-16.8,11.8-13.6c-4.7-5.2-9.6-11.1-14.1-17c-7.5,7.5-16,14.8-25.6,21.9c-11.9,8.2-27.4,14.9-44.4,14.3
		c-0.5,0-1-0.1-1.5-0.1c0.7,1.8,1.3,4.1,1.5,7.2c-0.8,12.4-8,25.7-19.6,37c-8.3,7.6-16.6,13.3-24.1,17.4c3.2,2.7,5.7,6.3,7.2,10.2
		c1.3,3.5,2,7.1,2,10.7c-0.2,3.6-0.3,6.2-1.7,10.3c-0.6,1.8-1.6,3.5-2.7,4.9c0.1,0,0.3,0,0.4,0c2.7,0.1,5.5,0.3,8.2,0.5
		c-1.1-5.9-2.6-14.2,0.8-24.5c0,0,0-0.1,0-0.1c1.5-3.8,7.1-15.1,16.9-20c-3.4,3.6-6.5,8.2-10.4,18.7c-1.5,4-0.2,15.4-0.9,19.1
		c1.7-4.7,5.4-12.9,8.7-17.8c3.6-5.3,7.9-8.7,15.6-11.7c7.9-2.8,15.5-1.8,23,3c8.2,6.9,11.4,17.4,10.8,27.3c0.7-0.5,4,0.5,4.8,0
		c0.3-0.2,2.7-0.3,3-0.4c-1.4-3.7-4.5-13.6-3.3-18.8c1.4-5.6,5.7-10.8,11.8-13.3c1.3-0.6,2.7-1,4.2-1.3c0.9-11,2.1-22.5,3.9-34.4
		C777.8,663.1,781.7,653.2,788.6,644.2z M792.3,752.3c0.6,0.2,1.1,0.4,1.7,0.6c-1.3-7.3-3-14.8-6.1-21.7c-1-2.4-2.2-4.5-3.6-6.3
		c-3.9-5.2-8.9-7.4-13.6-5.7c-0.1,0-0.3,0.1-0.4,0.2c-5.4,1.9-7.3,7.1-6.6,12.2c0.1,0.9,0.3,1.8,0.6,2.6c1,2.6,16,12.1,17.8,13
		c0.3,0.2,0.6,0.3,0.9,0.5C786.3,749.5,788.7,751.2,792.3,752.3z M739,746.2c5.5-6.8,2.7-20.2-5.6-25.7c-9-5.6-19.1-1.3-25.2,7.7
		c-6.4,8.4-9.6,18.3-12.9,26.5c0,0.1,0,0.1-0.1,0.2c-3.4,8.5-2.2,18.6-1.5,19.6c0.9-0.2,18.8-9.1,22.5-11.2
		C723.8,758.6,733.8,754.3,739,746.2z M655,617.5c-3.1-3.1-6-6.4-8.8-9.6h0c-0.1,0-0.2,0-0.4,0c-12.7-1.5-26.3-2.3-41.7-6.3
		c-14.7-3.9-30-9.4-45.5-16.6c-9.8-4.7-13-6.6-22.8-12.8c1.3,1.9,4.8,13.7,8.2,17.8c3.2,4.3,4.6,6,8.8,11.1c2,2.4,4.5,5.5,6.4,7.6
		c2.6,2.7,5,6,7.3,9.7c4.8,7.4,5.3,19.3,1.5,27.7c-3.4,8.8-9,15.9-13.9,22.6c-10.4,14-22.1,26.4-34.6,35.6c-1.3,1.1-2.6,2.1-3.9,3.2
		c0.6,0.4,1.2,0.8,1.7,1.2c5.5,4.3,7.7,10.5,8.6,15.1c1.4,6.7,1.4,13-0.2,17.9c12.5-0.9,26.4-1.7,40.5-4.8c6.6-1,10.4-1.7,15.5-2.8
		c1.9-0.4,5.7-1.9,8.5-5.2c1.6-9.3,4.3-21.7,7.1-33.1c6.3-25.1,22.4-45.6,37.4-60.2C640.9,628.3,649.7,622.6,655,617.5z
		 M518.4,742.3c0.8-3.8,1.9-10.1-0.3-16.4c-1.9-6.3-5.8-10.7-11.9-11.4c-2.1-0.2-4.4,0-7,0.6c-9.6,2.3-20.9,5.9-32,13.7
		c-2.6,1.7-7,5.7-10.8,9.7c-0.8,0.8-1.5,1.7-2.2,2.6c0.9,0,1.9,0,2.9,0c12.4-0.1,22.7,0.5,32,1.2c4.2,0.5,18.4,0.8,22.2,0.4
		C514.1,742.5,515.4,742.5,518.4,742.3z"/>
	<path class="st5" d="M405.4,477.5c-1.5-2.6-2.5-5.4-3.2-8.4c-1.5,2.8-2.9,5.6-4.2,8.4C400.5,477.5,402.9,477.5,405.4,477.5z"/>
	<path class="st5" d="M424.1,408.5C424.1,408.5,424.1,408.5,424.1,408.5c-1.1,0.2-0.8,1.8,0.2,1.8c0.3,0,0.5,0,0.8,0
		c0.1,0,0.2,0,0.3-0.1c0.3-0.4,0.5-0.7,0.7-1.1C425.4,408.8,424.8,408.7,424.1,408.5z"/>
	<path class="st5" d="M420.2,453.6c0,2.2,0,4.4,0,6.6c1.6-1.1,3.3-2,5.2-2.6C423.6,456.3,421.9,454.9,420.2,453.6z"/>
	<path class="st5" d="M434.6,484.5c-0.2,0.4-0.4,0.9-0.6,1.3c-0.8,1.7-0.9,1.9-0.3,0.5c-2.1-3-3.1-6.5-4-10
		c-1.8-7.3-1.3-15.2-1.2-22.7c0-2.6-2.7-4.8-5.2-4c-9.9,3-16.2,10.8-21,19.4c0.7,3,1.7,5.8,3.2,8.4c-2.5,0-4.9,0-7.4,0
		c1.3-2.8,2.6-5.7,4.2-8.4c-1.9-8-1.2-17,1.1-24.3c2.1-6.8,5.3-13.4,8.9-19.5c2-3.4,4.4-6.5,7.1-9.5c1.8-2.1,4.5-3.5,6.1-5.7
		c-0.1,0-0.2,0.1-0.3,0.1c-0.3,0-0.5,0-0.8,0c-1,0.1-1.2-1.5-0.2-1.8c0,0,0,0,0.1,0c0.6,0.2,1.3,0.3,1.9,0.5
		c-0.2,0.4-0.4,0.8-0.7,1.1c0.3-0.1,0.5-0.3,0.6-0.6c0.3-1.3,0.2-1.5-0.8-2.5c-0.6-0.6-1.6-1-2.4-0.6c-13.7,5.5-21.8,23.6-26.8,36.4
		c-4.6,11.7-4,27.9,2.1,39c1.5,2.7,6,2.9,7.4,0c3.6-7.7,7.6-16.7,14.8-21.6c0-2.2,0-4.4,0-6.6c1.7,1.3,3.5,2.6,5.2,4
		c-1.9,0.6-3.6,1.5-5.2,2.6c0.1,6.8,0.3,13.5,2,20.2c1.4,5.7,5.3,15.8,12.4,15.7c0.2,0,0.4,0,0.5-0.1
		C434.6,492.3,434.5,488.4,434.6,484.5z"/>
	<path class="st5" d="M254.6,290c-0.1-0.2-0.2-0.4-0.3-0.7c-0.1-0.2-0.4-0.4-0.6-0.2c-5,2.7,0.7,13.3,2.2,16.8
		c3.9,9.2,9.5,17.7,17.1,24.2c5.5,4.7,12.5,5.1,14.4-2.9c2.6-10.6,1.3-23,1.6-33.9c0.1-4.2-6.1-4.1-6.4,0
		c-0.5,7.3-1.3,14.5-1.4,21.8c0,1.3,0.1,11.8-2.3,10.5c-3.1-1.7-5.6-4.9-7.9-7.5c-4.4-5.1-7.9-11.1-10.9-17.1
		c-1.5-3-3.1-5.8-4.4-8.9c-0.2-0.7-0.4-1.3-0.7-2c-0.3-0.5-1.7-0.7-1.2,0.1C254.1,290.6,254.7,290.4,254.6,290L254.6,290z"/>
	<path class="st5" d="M203,299.5c0,0.1-0.2-1.2-0.3-0.9c0.6-2.3-3.3-2.7-3.1-0.4c0.8,11.3,11.8,31.2,25,30.5
		c1.7-0.1,3.1-1.4,3.2-3.2c0.1-7.8,1.1-16.2,4.3-23.4c1.3-3-2.6-5.4-4.5-2.6c-5.2,7.6-6.1,17.1-6.1,26.1c1.1-1.1,2.1-2.1,3.2-3.2
		c-5.8,0.4-10.5-5.4-13.6-9.6c-1.9-2.5-3.5-5.3-5.1-8c-0.6-1-1.1-2.1-1.6-3.2c-0.3-0.6-0.5-1.3-0.8-1.9c-0.2-1.2-0.7-1.2-1.5-0.1
		C202.1,300.2,203,300.1,203,299.5L203,299.5z"/>
	<path class="st5" d="M302.9,180.8c-0.3-0.3-0.7-1.1-1.1-1.5c-0.4-0.5-1.2,0.1-1.1,0.6c3.5,17.7,28.2,18.5,42.2,18
		c19.4-0.7,39.7-6.6,55.9-17.5c2.4-1.6,0.2-5.6-2.3-4c-15.4,9.7-33.7,14.8-51.6,16.5c-8.6,0.8-16.8,0-25.3-1.2
		c-4.7-0.7-8.9-2.5-12.4-5.7c-1.6-1.5-2.9-3.4-4.1-5.2c0.1,0.2-3.3-1.9-0.7,0.3C302.8,181.5,303.2,181.1,302.9,180.8L302.9,180.8z"
		/>
	<path class="st5" d="M496.5,708c-0.8-6.8-6.9-7.8-12.8-8.4c-10.6-1.2-20.2,1.9-29.1,7.5c-9.4,5.8-17.2,14.3-25,22
		c-4.2,4.2-12.2,8.5-10.4,15.5c0.4,1.6,1.8,2.4,3.4,2.6c6.8,0.8,14.1,0.6,20.8,1.9c0-1.9,0-3.9,0-5.8c-0.2,0.1-0.5,0.2-0.7,0.3
		c-3,1.2-2.5,5.3,0.8,5.6c0.3,0,0.6,0,0.9,0.1c4.8,0.4,4.9-7.4,0-7.6c-7.2-0.2-14.5-0.7-21.7-1.5c1.1,0.9,2.3,1.7,3.4,2.6
		c-0.5-2,7.1-7.2,8.5-8.7c5.7-5.7,11.4-11.3,17.4-16.6c5.8-5.2,12.8-9.1,20.3-11.2c4.8-1.3,19.2-2.9,22.4,2.4
		C495.1,709.3,496.7,709.1,496.5,708L496.5,708z"/>
	<path class="st5" d="M285.7,143.8c-0.2,0.1-0.3,0.2-0.5,0.2c-0.4,0.2-0.8,0.8-0.7,1.3c0.7,7,10.7,11.1,16.7,11.4
		c11.9,0.5,24.6-6.6,35.3-11c11.9-5,23.5-9.6,36.6-8.4c12.9,1.2,26,6.7,38,11.4c6.2,2.4,10.4-7.8,4.5-10.7
		c-20.3-9.9-43.2-18.1-65.6-10.4c-11.6,4-22.3,10.2-33.5,15.2c-5.2,2.4-11.1,4.9-16.9,5.4c-4.5,0.3-8.8-2.3-12.8-4.2
		c0.1,0.8,0.2,1.6,0.3,2.4c0.1-0.1,0.3-0.3,0.4-0.4C288.6,144.8,287.1,143.2,285.7,143.8L285.7,143.8z"/>
	<path class="st5" d="M309.8,151.7c0.5-0.4,1-0.7,1.5-1.1c-0.7-0.1-1.4-0.2-2.1-0.3c2,2.5-0.6,10.8-0.1,14.2
		c1.2,7.7,5,14.3,9.9,20.2c10.6,12.7,25.6,14.9,40.9,10.6c10.3-2.9,19.6-9.2,27.3-16.4c5.1-4.8,9.4-10.7,12.7-16.9
		c1.7-3.1,2.9-6.5,4.1-9.8c1.6-4.6,1.1-7.5,0.1-12c-0.6-2.9-4.8-3.3-6.2-0.8c-1.6,2.9-3.1,4.7-4,8.1c-0.8,3.1-2.1,6.2-3.5,9.1
		c-2.7,5.6-6.5,10.5-10.8,14.9c-6.2,6.3-14,11.3-22.5,14c-5.8,1.9-12.3,3-18.4,1.9c-7.5-1.3-13.8-8.1-18-14
		c-3.8-5.3-4.9-10.6-5.4-16.9c-0.3-3.4-0.9-7.1-4.1-8.9c-1.2-0.7-3.2,0.5-2.6,2c0.3,0.7,0.5,1.3,0.8,2
		C309.6,151.6,309.7,151.7,309.8,151.7L309.8,151.7z"/>
	<path class="st5" d="M342.7,141.5c-6.1,7.6-3.9,17-3.9,19.5c2.6,10.2,15.6,17.8,26,17c0-5.1,0-10.2,0-15.3c0-3.4,1.7-10.2,0-12.7
		c-1.7-4.2-7.8-3.4-11.3-4.2c-2.6,0-6.1-1.7-8.7-1.7L342.7,141.5z"/>
	<path class="st5" d="M342.3,140.9c-7.1,3.8-8.1,17.6-4.6,24.3c5.1,9.8,16.1,15.9,27.1,15.5c1.5-0.1,2.7-1.2,2.8-2.8
		c0-5.9-0.3-12,0.3-17.9c0.4-4,1.2-7.7-0.6-11.5c-1.5-3.3-4.9-4.5-8.2-5c-4.7-0.6-9.6-2.4-14.2-2.3c-3.1,0.1-3.9,4.7-0.7,5.5
		c4.5,1.1,18.3,1.4,18.6,6.9c0.2,3-0.6,6-0.7,9c-0.2,5.1,0.1,10.2,0.1,15.3c0.9-0.9,1.8-1.8,2.8-2.8c-8.7,0.4-17.2-3.8-22.1-11.1
		c-4.7-7.1-0.6-15.2,0.6-22.4C343.4,141.1,342.9,140.6,342.3,140.9L342.3,140.9z"/>
	<path class="st5" d="M185.6,161.8c1,6.1-1.4,8.7-2.4,10.7c-1.6,3.8-5.8,8.5-5.8,8.5c-4.3,4-9.1,7.5-15.1,13.4
		c-4.1,5.5-7.8,10.4-8.7,12.6c-0.7,1.7-2.9-6.9-3.5-17.3c-0.1-5.2,0-11.8,3.1-19.1c1.6-3.6,3.7-7.3,6.8-10.5
		c1.5-1.7,2.5-2.8,4.9-4.5c2.1-1.3,4.5-3.5,10.3-3.3c2.9,0.2,6.1,2,7.6,4.1C182.9,156.5,185.6,159.8,185.6,161.8z"/>
	<path class="st5" d="M356.5,234.8c-3.7-0.9-13.1,0.1-16.9,3.8c-1.8,1.4-4.7,3.2-2.3,3.8c1.7,0.4,2.5,0.8,4.5,1.3
		c5.6,1.3,7.2,4,8.6,9.1c0.4,1.3,1.8,1.8,3,1.2c5.7-2.9,9.6-2.1,14.2,1.9c1.5,1.3,2.9,2.2,4.7,2.9c1.1,0.4,2.5-0.7,2.4-1.9
		C374,246.5,366.9,237.3,356.5,234.8z"/>
	<path class="st0" d="M373.1,156.7c0,3.6-3.1,6.5-6.9,6.5c-3.8,0-6.9-2.9-6.9-6.5c0-3.6,3.1-6.5,6.9-6.5
		C370,150.2,373.1,153.1,373.1,156.7z"/>
</g>
</svg>
